<svg xmlns="http://www.w3.org/2000/svg" xmlns:xlink="http://www.w3.org/1999/xlink" width="297.669" height="60.02" viewBox="0 0 297.669 60.02">
  <defs>
    <linearGradient id="linear-gradient" x1="0.514" y1="2.324" x2="0.514" y2="0.867" gradientUnits="objectBoundingBox">
      <stop offset="0" stop-color="#fe7c56"/>
      <stop offset="1" stop-color="#fe5169"/>
    </linearGradient>
    <linearGradient id="linear-gradient-2" x1="0.513" y1="0.918" x2="0.513" y2="-0.538" xlink:href="#linear-gradient"/>
    <linearGradient id="linear-gradient-3" x1="0.514" y1="2.324" x2="0.514" y2="0.868" xlink:href="#linear-gradient"/>
    <linearGradient id="linear-gradient-4" x1="0.513" y1="0.919" x2="0.513" y2="-0.538" xlink:href="#linear-gradient"/>
    <linearGradient id="linear-gradient-5" x1="0.504" y1="0.877" x2="0.504" y2="0.391" xlink:href="#linear-gradient"/>
    <linearGradient id="linear-gradient-6" x1="0.512" y1="1.364" x2="0.512" y2="0.376" xlink:href="#linear-gradient"/>
    <linearGradient id="linear-gradient-7" x1="0.512" y1="1.371" x2="0.512" y2="0.393" xlink:href="#linear-gradient"/>
    <linearGradient id="linear-gradient-8" x1="0.51" y1="1.261" x2="0.51" y2="0.575" xlink:href="#linear-gradient"/>
    <linearGradient id="linear-gradient-9" x1="0.516" y1="1.4" x2="0.516" y2="0.402" xlink:href="#linear-gradient"/>
    <linearGradient id="linear-gradient-10" x1="0.532" y1="1.276" x2="0.532" y2="0.589" xlink:href="#linear-gradient"/>
    <linearGradient id="linear-gradient-11" x1="0.513" y1="1.29" x2="0.513" y2="0.529" xlink:href="#linear-gradient"/>
    <linearGradient id="linear-gradient-12" x1="0.51" y1="1.373" x2="0.51" y2="0.395" xlink:href="#linear-gradient"/>
    <linearGradient id="linear-gradient-13" x1="0.513" y1="1.374" x2="0.513" y2="0.396" xlink:href="#linear-gradient"/>
    <linearGradient id="linear-gradient-14" x1="0.544" y1="0.513" x2="0.544" y2="-2.972" xlink:href="#linear-gradient"/>
    <linearGradient id="linear-gradient-15" x1="0.549" y1="0.515" x2="0.549" y2="-2.969" xlink:href="#linear-gradient"/>
    <linearGradient id="linear-gradient-16" x1="0.537" y1="0.515" x2="0.537" y2="-2.872" xlink:href="#linear-gradient"/>
    <linearGradient id="linear-gradient-17" x1="0.537" y1="0.516" x2="0.537" y2="-2.968" xlink:href="#linear-gradient"/>
    <linearGradient id="linear-gradient-18" x1="0.55" y1="0.516" x2="0.55" y2="-2.968" xlink:href="#linear-gradient"/>
    <linearGradient id="linear-gradient-19" x1="0.535" y1="0.516" x2="0.535" y2="-2.864" xlink:href="#linear-gradient"/>
    <linearGradient id="linear-gradient-20" x1="0.55" y1="0.517" x2="0.55" y2="-2.87" xlink:href="#linear-gradient"/>
    <linearGradient id="linear-gradient-21" x1="0.539" y1="0.518" x2="0.539" y2="-2.968" xlink:href="#linear-gradient"/>
    <linearGradient id="linear-gradient-22" x1="0.535" y1="0.516" x2="0.535" y2="-2.865" xlink:href="#linear-gradient"/>
    <linearGradient id="linear-gradient-23" x1="0.539" y1="0.519" x2="0.539" y2="-2.964" xlink:href="#linear-gradient"/>
    <linearGradient id="linear-gradient-24" x1="0.539" y1="0.519" x2="0.539" y2="-2.965" xlink:href="#linear-gradient"/>
    <linearGradient id="linear-gradient-25" x1="0.548" y1="0.52" x2="0.548" y2="-2.966" xlink:href="#linear-gradient"/>
    <linearGradient id="linear-gradient-26" x1="0.532" y1="0.417" x2="0.532" y2="-2.294" xlink:href="#linear-gradient"/>
    <linearGradient id="linear-gradient-27" x1="0.543" y1="0.513" x2="0.543" y2="-2.916" xlink:href="#linear-gradient"/>
    <linearGradient id="linear-gradient-28" x1="0.738" y1="0.522" x2="0.738" y2="-2.962" xlink:href="#linear-gradient"/>
    <linearGradient id="linear-gradient-29" x1="0.549" y1="0.522" x2="0.549" y2="-2.964" xlink:href="#linear-gradient"/>
    <linearGradient id="linear-gradient-30" x1="0.54" y1="0.523" x2="0.54" y2="-2.963" xlink:href="#linear-gradient"/>
    <linearGradient id="linear-gradient-31" x1="0.536" y1="0.523" x2="0.536" y2="-2.961" xlink:href="#linear-gradient"/>
    <linearGradient id="linear-gradient-32" x1="0.55" y1="0.522" x2="0.55" y2="-2.864" xlink:href="#linear-gradient"/>
  </defs>
  <g id="Marca_Base" data-name="Marca Base" transform="translate(-468.14 -441.77)">
    <rect id="Rectángulo_93" data-name="Rectángulo 93" width="22.57" height="22.57" rx="2.62" transform="translate(468.14 442.847)" fill="url(#linear-gradient)"/>
    <rect id="Rectángulo_94" data-name="Rectángulo 94" width="22.57" height="22.57" rx="2.62" transform="translate(468.155 474.562)" fill="url(#linear-gradient-2)"/>
    <rect id="Rectángulo_95" data-name="Rectángulo 95" width="22.57" height="22.57" rx="2.62" transform="translate(499.349 442.829)" fill="url(#linear-gradient-3)"/>
    <rect id="Rectángulo_96" data-name="Rectángulo 96" width="22.57" height="22.57" rx="2.62" transform="matrix(0.707, 0.707, -0.707, 0.707, 510.643, 469.871)" fill="url(#linear-gradient-4)"/>
    <path id="Trazado_148" data-name="Trazado 148" d="M697.471,446.58c11.22,0,19.853,8.445,19.859,19.668A19.091,19.091,0,0,1,710.2,481.5a39.806,39.806,0,0,0,30.1,13.1,33.341,33.341,0,0,0,14.9-3v8.569c-1.265.862-3.45,1.555-6.615,2.191a42.854,42.854,0,0,1-8.342.908,47.052,47.052,0,0,1-14.615-2.421c-9.84-3.217-18.3-8.851-23.366-15.58a18.308,18.308,0,0,1-4.775.578,19.635,19.635,0,1,1-.018-39.267Zm-7.522,27.62a9.843,9.843,0,0,0,7.6,3.159,9.533,9.533,0,0,0,7.537-3.168,11.466,11.466,0,0,0,2.814-7.94,11.248,11.248,0,0,0-2.823-8,10.7,10.7,0,0,0-15.132.067,11.3,11.3,0,0,0-2.872,7.94A11.509,11.509,0,0,0,689.948,474.2Z" transform="translate(-146.098 -3.352)" fill="url(#linear-gradient-5)"/>
    <path id="Trazado_149" data-name="Trazado 149" d="M818.33,485.333h8.86v15.3a4.377,4.377,0,0,0,4.539,4.427,4.273,4.273,0,0,0,4.484-4.433v-15.3h8.86v26.985h-8.082l-.3-2.533c-1.843,2.245-4.947,3.4-8.342,3.4a9.793,9.793,0,0,1-10.016-10.007Z" transform="translate(-244.226 -30.379)" fill="url(#linear-gradient-6)"/>
    <path id="Trazado_150" data-name="Trazado 150" d="M914.232,485.848a25.463,25.463,0,0,1,11.1-2.478c8.112,0,13.063,3.328,13.066,10.464v17.087h-8.506l-.3-3.328a10.862,10.862,0,0,1-8.339,3.915c-4.841,0-8.473-3.1-8.473-7.991,0-5.749,4.769-8.4,12.076-8.409a19.932,19.932,0,0,1,4.66.517v-.632c0-2.993-1.785-3.97-5.749-3.967a21.694,21.694,0,0,0-8.745,2.076ZM929.256,501.2v-1.092c-2.82-.862-7.71-.687-7.477,2.191,0,1.61,1.15,2.53,3.05,2.53C927.068,504.827,929.259,503.5,929.256,501.2Z" transform="translate(-310.097 -29.012)" fill="url(#linear-gradient-7)"/>
    <path id="Trazado_151" data-name="Trazado 151" d="M1032.341,483.142h-8.572l-.3-2.07c-1.61,1.61-4.539,2.648-7.94,2.651a11.832,11.832,0,0,1-9.15-3.909,16.5,16.5,0,0,1-.009-20.195,11.557,11.557,0,0,1,9.147-4.031c3.631,0,6.385,1.147,8.17,3.447V443.56h8.63Zm-20.488-13.453a5.863,5.863,0,0,0,5.985,6.094c3.28,0,5.749-2.475,5.749-6.1s-2.478-6.155-5.749-6.155A5.818,5.818,0,0,0,1011.852,469.689Z" transform="translate(-372.962 -1.248)" fill="url(#linear-gradient-8)"/>
    <path id="Trazado_152" data-name="Trazado 152" d="M1118.63,487.517a7.761,7.761,0,0,1,7.075-4.26,9.926,9.926,0,0,1,3.277.572l-.524,7.767a10.476,10.476,0,0,0-3.4-.629c-3.683,0-6.215,2.188-6.212,6.851v13.011H1110V483.847h8.342Z" transform="translate(-447.64 -28.932)" fill="url(#linear-gradient-9)"/>
    <path id="Trazado_153" data-name="Trazado 153" d="M1173.86,446.611a4.6,4.6,0,0,1,4.841-4.841,4.842,4.842,0,1,1,.006,9.683A4.606,4.606,0,0,1,1173.86,446.611Zm9.265,8.282v26.982h-8.86V454.89Z" transform="translate(-492.177 0)" fill="url(#linear-gradient-10)"/>
    <path id="Trazado_154" data-name="Trazado 154" d="M1228.8,472.481h-7.362v8.687c0,4.539,4.088,4.257,8.345,3.162l.635,7.19a19.7,19.7,0,0,1-7.189,1.271c-6.5,0-10.648-3.274-10.651-10.179V472.487h-4.257v-7.244h4.257V456.61h8.573v8.63h7.649Z" transform="translate(-516.21 -10.35)" fill="url(#linear-gradient-11)"/>
    <path id="Trazado_155" data-name="Trazado 155" d="M1292.764,483.17a14,14,0,0,1,10.358,4.024,14.3,14.3,0,0,1,.009,20.134,14.173,14.173,0,0,1-10.355,3.976,14.39,14.39,0,0,1-10.358-3.964,14.3,14.3,0,0,1-.009-20.137A14.191,14.191,0,0,1,1292.764,483.17Zm0,7.882a5.486,5.486,0,0,0-4.142,1.728,6.46,6.46,0,0,0-1.549,4.49,6.657,6.657,0,0,0,1.556,4.487,5.837,5.837,0,0,0,8.285,0,6.412,6.412,0,0,0,1.607-4.487,6.231,6.231,0,0,0-1.613-4.487,5.474,5.474,0,0,0-4.139-1.731Z" transform="translate(-564.993 -28.873)" fill="url(#linear-gradient-12)"/>
    <path id="Trazado_156" data-name="Trazado 156" d="M1387.369,511.258a26.4,26.4,0,0,1-10.53-1.837l.859-7.02a29.192,29.192,0,0,0,8.92,1.779c2.935,0,4.027-.406,4.025-1.555,0-.977-.8-1.437-3.631-1.9l-2.472-.4c-5.583-.862-8.17-3.392-8.17-8.17,0-5.522,4.841-9.035,12.424-9.038a21.738,21.738,0,0,1,9.2,1.779l-.687,6.845a19.594,19.594,0,0,0-3.8-.974,26.348,26.348,0,0,0-4.257-.46c-2.935,0-4.43.578-4.43,1.788,0,.908,1.1,1.437,4.146,1.894l2.645.46c5.123.859,7.6,3.329,7.6,7.937C1399.221,507.857,1394.676,511.255,1387.369,511.258Z" transform="translate(-633.41 -28.838)" fill="url(#linear-gradient-13)"/>
    <path id="Trazado_157" data-name="Trazado 157" d="M954.73,602.947v2.421h-1.21v-7.9H957.1a2.572,2.572,0,0,1,2.766,2.75,2.644,2.644,0,0,1-2.763,2.723Zm0-4.372v3.274h2.133a1.6,1.6,0,0,0,1.713-1.622,1.573,1.573,0,0,0-1.716-1.655Z" transform="translate(-338.509 -108.587)" fill="url(#linear-gradient-14)"/>
    <path id="Trazado_158" data-name="Trazado 158" d="M984.091,604.223v1.108H978.23v-7.9h5.731v1.11H979.44v2.182h3.906v1.117h-3.9v2.393Z" transform="translate(-355.742 -108.559)" fill="url(#linear-gradient-15)"/>
    <path id="Trazado_159" data-name="Trazado 159" d="M1005.121,601.782H1002.7v-1.107h3.631v3.873a6.22,6.22,0,0,1-2.787.605c-2.859,0-4.72-1.652-4.72-4.061a3.682,3.682,0,0,1,1.3-2.941,5.1,5.1,0,0,1,3.456-1.123,5.629,5.629,0,0,1,2.454.523l-.118,1.156a1.234,1.234,0,0,0-.43-.179,5.189,5.189,0,0,0-1.906-.345,3.755,3.755,0,0,0-2.524.811,2.63,2.63,0,0,0-.929,2.1,2.678,2.678,0,0,0,.908,2.118,3.583,3.583,0,0,0,2.466.8,3.824,3.824,0,0,0,1.622-.272Z" transform="translate(-370.103 -108.279)" fill="url(#linear-gradient-16)"/>
    <path id="Trazado_160" data-name="Trazado 160" d="M1031.866,605.3l-.632-1.643h-3.991l-.632,1.643h-1.31l3.262-7.9h1.334l3.268,7.9Zm-2.636-6.527-1.643,3.861h3.277Z" transform="translate(-388.57 -108.538)" fill="url(#linear-gradient-17)"/>
    <path id="Trazado_161" data-name="Trazado 161" d="M1059.879,604.183v1.107h-5.719v-7.9h1.229v6.793Z" transform="translate(-408.697 -108.531)" fill="url(#linear-gradient-18)"/>
    <path id="Trazado_162" data-name="Trazado 162" d="M1075.443,596.992a4.018,4.018,0,0,1,4.182,4.109,4.166,4.166,0,0,1-8.327.006,4.021,4.021,0,0,1,4.146-4.115Zm2.1,6.185a2.826,2.826,0,0,0,.808-2.088,2.9,2.9,0,0,0-.811-2.118,2.792,2.792,0,0,0-2.1-.823,2.724,2.724,0,0,0-2.061.835,2.923,2.923,0,0,0-.784,2.118,2.838,2.838,0,0,0,.787,2.085,2.753,2.753,0,0,0,2.061.8,2.823,2.823,0,0,0,2.115-.811Z" transform="translate(-420.648 -108.251)" fill="url(#linear-gradient-19)"/>
    <path id="Trazado_163" data-name="Trazado 163" d="M1107,597.413l-.109,1.156a4.941,4.941,0,0,0-2.154-.475c-1.062,0-1.7.384-1.7,1.135a.79.79,0,0,0,.357.772,2.366,2.366,0,0,0,.775.3l.142.045,1.156.345c1.156.333,1.906.871,1.909,2.036a2.145,2.145,0,0,1-.8,1.707,3.025,3.025,0,0,1-2.036.678,8.4,8.4,0,0,1-1.634-.154,4.56,4.56,0,0,1-1.238-.39l.106-1.12a5.391,5.391,0,0,0,1.21.378,6.793,6.793,0,0,0,1.4.167c.99,0,1.67-.442,1.667-1.168,0-.605-.3-.881-1.108-1.107l-1.262-.357a3.886,3.886,0,0,1-1.334-.605,1.734,1.734,0,0,1-.632-1.371c0-1.465,1.071-2.4,2.869-2.4A6.735,6.735,0,0,1,1107,597.413Z" transform="translate(-441.831 -108.252)" fill="url(#linear-gradient-20)"/>
    <path id="Trazado_164" data-name="Trazado 164" d="M1133.11,597.36h3.347a3.636,3.636,0,0,1,3.934,3.952,4.016,4.016,0,0,1-1.023,2.884,3.8,3.8,0,0,1-2.9,1.062h-3.347Zm3.171,6.79a2.847,2.847,0,0,0,0-5.695h-1.955v5.695Z" transform="translate(-463.757 -108.51)" fill="url(#linear-gradient-21)"/>
    <path id="Trazado_165" data-name="Trazado 165" d="M1164.059,596.992a4.021,4.021,0,0,1,4.185,4.109,4.166,4.166,0,0,1-8.327,0,4.015,4.015,0,0,1,4.142-4.112Zm2.1,6.182a2.824,2.824,0,0,0,.811-2.085,2.914,2.914,0,0,0-.811-2.118,2.8,2.8,0,0,0-2.1-.82,2.724,2.724,0,0,0-2.061.835,2.926,2.926,0,0,0-.784,2.118,2.854,2.854,0,0,0,.787,2.085,2.757,2.757,0,0,0,2.061.8,2.82,2.82,0,0,0,2.1-.826Z" transform="translate(-482.452 -108.251)" fill="url(#linear-gradient-22)"/>
    <path id="Trazado_166" data-name="Trazado 166" d="M1193.02,599.266v5.958h-1.21v-7.9h1.21l5.056,6.016V597.32h1.21v7.9h-1.229Z" transform="translate(-504.696 -108.482)" fill="url(#linear-gradient-23)"/>
    <path id="Trazado_167" data-name="Trazado 167" d="M1222.5,597.32h3.347a3.637,3.637,0,0,1,3.934,3.955,4.036,4.036,0,0,1-1.023,2.884,3.854,3.854,0,0,1-2.9,1.062h-3.347Zm3.177,6.79c1.967,0,2.835-.993,2.835-2.838a2.517,2.517,0,0,0-2.838-2.859h-1.955v5.695Z" transform="translate(-526.099 -108.482)" fill="url(#linear-gradient-24)"/>
    <path id="Trazado_168" data-name="Trazado 168" d="M1256.852,604.09V605.2H1251v-7.9h5.731v1.12h-4.521V600.6h3.906v1.107h-3.906V604.1Z" transform="translate(-545.975 -108.468)" fill="url(#linear-gradient-25)"/>
    <path id="Trazado_169" data-name="Trazado 169" d="M1285.629,596.883a4.018,4.018,0,0,1,4.176,4.106,3.912,3.912,0,0,1-.82,2.49,3.8,3.8,0,0,1-2.157,1.395,4.538,4.538,0,0,0,2.956,1.047,5.676,5.676,0,0,0,.99-.094V606.9a5.244,5.244,0,0,1-5.3-1.879,3.961,3.961,0,0,1-3.991-4.024,4.016,4.016,0,0,1,4.152-4.115Zm2.1,6.182a2.823,2.823,0,0,0,.811-2.085,2.9,2.9,0,0,0-.811-2.118,2.787,2.787,0,0,0-2.1-.82,2.7,2.7,0,0,0-2.058.835,2.914,2.914,0,0,0-.787,2.118,2.86,2.86,0,0,0,.787,2.085,2.76,2.76,0,0,0,2.061.8A2.82,2.82,0,0,0,1287.729,603.065Z" transform="translate(-567.229 -108.175)" fill="url(#linear-gradient-26)"/>
    <path id="Trazado_170" data-name="Trazado 170" d="M1313.143,597.263h1.21v5.026c0,1.229.908,1.837,2.194,1.834,1.371,0,2.2-.645,2.2-1.834V597.26h1.229V602.4c0,2.036-1.631,2.884-3.432,2.884-1.939,0-3.407-.926-3.407-2.881Z" transform="translate(-589.313 -108.44)" fill="url(#linear-gradient-27)"/>
    <path id="Trazado_171" data-name="Trazado 171" d="M1342.68,597.25v7.9h-1.21v-7.9Z" transform="translate(-609.07 -108.433)" fill="url(#linear-gradient-28)"/>
    <path id="Trazado_172" data-name="Trazado 172" d="M1357.321,604.037v1.11h-5.861v-7.9h5.731v1.108h-4.515v2.182h3.91v1.107h-3.91v2.393Z" transform="translate(-616.037 -108.433)" fill="url(#linear-gradient-29)"/>
    <path id="Trazado_173" data-name="Trazado 173" d="M1380.5,605.128l-1.946-2.421h-2.178v2.421h-1.21v-7.9h3.58a2.75,2.75,0,0,1,1.1,5.277l2.17,2.62Zm-4.127-6.787v3.277h2.118a1.6,1.6,0,0,0,1.712-1.619,1.57,1.57,0,0,0-1.716-1.655Z" transform="translate(-632.573 -108.42)" fill="url(#linear-gradient-30)"/>
    <path id="Trazado_174" data-name="Trazado 174" d="M1404.746,605.118l-.632-1.643h-3.991l-.632,1.646h-1.31l3.274-7.9h1.334l3.268,7.9Zm-2.638-6.527-1.64,3.861h3.277Z" transform="translate(-648.62 -108.413)" fill="url(#linear-gradient-31)"/>
    <path id="Trazado_175" data-name="Trazado 175" d="M1430.835,597.259l-.106,1.156a4.872,4.872,0,0,0-2.157-.475c-1.062,0-1.7.381-1.7,1.132a.8.8,0,0,0,.357.775,2.369,2.369,0,0,0,.775.3l.145.048,1.153.345c1.156.333,1.909.868,1.909,2.036a2.142,2.142,0,0,1-.8,1.7,3,3,0,0,1-2.036.681,8.6,8.6,0,0,1-1.631-.154,4.681,4.681,0,0,1-1.241-.393l.106-1.12a5.644,5.644,0,0,0,1.21.381,7,7,0,0,0,1.407.166c.986,0,1.667-.442,1.667-1.171,0-.605-.3-.881-1.111-1.107l-1.262-.354a4,4,0,0,1-1.334-.605,1.728,1.728,0,0,1-.632-1.371c0-1.464,1.071-2.393,2.869-2.4A6.659,6.659,0,0,1,1430.835,597.259Z" transform="translate(-667.674 -108.146)" fill="url(#linear-gradient-32)"/>
  </g>
</svg>
